<svg xmlns="http://www.w3.org/2000/svg" version="1.0" width="568" height="568" viewBox="0 0 426 426"><path d="M0 213v213h426V0H0zM299.2 83.7c4.1 4.9 8.4 10.3 9.7 12 1.2 1.8 2.9 3.3 3.7 3.3s6.2-2.3 12.1-5c5.9-2.8 11.5-5.2 12.6-5.3 2.1-.2 2.7 1.2 8.2 19.5l2.6 8.8h12c8.7 0 12.1.3 12.4 1.2.8 2.3 1 27.6.3 27.1-.5-.2-.8-5.6-.8-11.9s-.3-11.4-.7-11.4c-.3 0-1.5.7-2.5 1.7-1.1.9-1.8 1.1-1.8.5 0-.7.9-1.7 2-2.4s2-1.6 2-2-5.5-.9-12.2-1l-12.1-.3-4.3-13.3c-2.3-7.3-4.4-13.6-4.7-13.8-.3-.3-5.4 1.8-11.4 4.6-5.9 2.9-11.8 5.6-13 6.1-1.9.7-3-.3-9.2-7.9-11.3-14-11.9-14.6-13.6-13.2-.9.7-4.5 5.7-8.2 11.2-3.6 5.4-6.9 10.1-7.4 10.4-.4.2-6.4-2.4-13.3-5.8-12.2-6.1-15.3-6.7-12.8-2.8 1.6 2.6 1.5 3.8-.1 1.6-1.2-1.6-1.7-.5-4.6 9.6-1.8 6.3-3.6 12.1-4.1 12.8-.5.9-3.9 1.2-12.4 1.1-9.6-.2-11.7.1-12.2 1.3-.3.9-.9 6.6-1.3 12.8l-.8 11.3-.2-12.2c0-6.9-.5-12.5-1.1-12.8-3-1.9.2-2.5 12.5-2.5 10 0 13.7-.3 14-1.3.2-.6 2-7 3.9-14.1 2-7.2 4-13.4 4.5-13.9s6.1 1.7 13.4 5.3c7 3.4 13.1 5.9 13.7 5.5.6-.3 3.3-4.1 6.2-8.3 5.3-7.9 10.7-15.2 11.3-15.2.2 0 3.7 3.9 7.7 8.7m-143.5 1.2c4.6 1.2 11.9 3.5 16.4 5.2 8.8 3.4 26.6 14.7 31.4 20 2.6 2.9 2.7 3.1.5 1.6-17.1-11.8-26.5-17.2-28.2-16.1-.4.3-.8.1-.8-.4 0-1.2-9.3-4.6-18.5-6.9-5.2-1.3-11.2-1.7-23-1.7-20.5.1-30.2 2.4-47.3 11.4-17 8.9-29 19.3-40.5 34.9-6.1 8.3-12.2 19.5-12 22.2.1.9-.5 2-1.2 2.3-1.8.6-7 17.7-8.5 27.6-1.6 10.6-1.4 33.1.4 44.3 1.7 10 5 20.5 7.1 22.2.6.5 1 1.5.8 2.1-.9 2.6 15.6 27.8 22.1 33.7 1.7 1.6 4.5 4.1 6.1 5.6 5.7 5.3 12.4 10.3 13.2 9.8.5-.3.3-7-.4-14.9-.6-7.9-1.2-18.2-1.2-22.9-.1-7.9-.3-8.9-3.7-14.5-4.7-7.7-6.7-12.3-9.6-21.4-2-6.6-2.3-9.3-2.2-23.5.1-14.3.4-16.9 2.7-24.3 1.5-4.6 4.8-12.5 7.4-17.5 6.2-12 20.2-26.5 30.6-31.8 6.5-3.2 6.8-3.6 6.3-6.4-.4-2.8-.4-2.8.6-.8 1.3 2.7 1.8 2.7 8.3.8 16.3-5 38.8-2.9 54.6 5 9 4.6 16.1 10.1 21.4 16.5 1.1 1.4-.3.4-3.2-2.2-6.7-6.2-14.1-10.8-23.3-14.5-10.8-4.5-18.1-5.6-31.7-5.1-20.2.8-33.7 6.9-48.3 21.7-21.1 21.5-29.1 54-20.6 83.3 2.4 8 6.3 16.7 9 19.5.8.9 1.2-3.6 1.3-18 .4-30.1 2.9-46 9-58 3.6-7.2 12.6-18.9 18.1-23.7 6.1-5.2 18.5-11.5 25.9-13 8.1-1.7 27.1-.7 34.8 1.8 17.5 5.7 34.3 16.2 42.9 27 6.7 8.4 8.5 12.5 8.6 19.9 0 6.4-.7 8.3-3.1 8.3-1.8 0-1.9.6-1.3 7.2.3 4 .7 7.9.9 8.5.6 1.9-1.3 17.2-3 23.8-2.2 8.6-9.6 22.9-15.8 30.5s-16.7 16-25.2 20.1c-3.3 1.5-10.2 3.6-15.2 4.6-5.1.9-9.3 2-9.3 2.4 0 1.7 6.6 16 10.2 22.2s4.1 6.7 6.6 6.1c3.9-.8 12.2-3.4 15.7-4.9 1.7-.7 5-2.1 7.5-3.1 5.6-2.4 20.4-12 24.9-16.3 4.1-3.9 5.5-3.3 1.5.7-10.7 10.6-26.8 20.1-42.1 24.8l-8.3 2.5 1.5 2.9c.8 1.6 2 3.2 2.6 3.6 3.1 1.9-4.8 2.4-41.3 2.4H78l-.4-2.2c-.3-1.3-1-6.6-1.5-11.8-1-9.2-1.1-9.6-4.7-12.5-19.9-16.3-26.7-24.4-38.1-45.5-4.8-8.8-7.4-16.1-10.5-29.6-2-8.5-2.3-12.5-2.2-28.4 0-15.4.4-20.1 2.2-27.8 4.6-19.3 10.1-31.1 22.6-47.8 16.5-22.2 41.3-38 66.1-42.3 3.3-.6 7.1-1.3 8.5-1.5 5.8-1.1 27.8.4 35.7 2.3m154.8 40.2c18.9 4.7 34.5 15.7 45 31.9 9.5 14.6 13.5 27.1 14.2 45.1.6 14.3-1 24.7-5.6 36.4-2.5 6.3-2.9 8.7-3.5 24-.4 9.3-.9 21-1.2 25.8l-.6 8.8 5.9-.3 5.8-.3.3-15 .3-15 11.2-5.9c6.2-3.3 11.8-6.6 12.6-7.4 1.3-1.2.7-2.9-4.2-12.8-3.1-6.3-5.7-11.9-5.7-12.6 0-.9 4.7-7.2 8.3-11 3.8-4 7.7-9 7.7-9.8 0-.5-.8-1.1-1.7-1.3-1.4-.4-1.2-.5.5-.6 2.7-.1 2.8-1.1.5-3.7-1-1-4.9-5.4-8.8-9.8l-6.9-7.8 2.3-4.2c9.9-17.9 11-20.4 9.5-21.6-.8-.7-5.9-3.4-11.4-6.1s-10-5.1-10-5.4c0-.4.3-.4.8-.2.4.3 6 3 12.5 6.1l11.8 5.6-6.6 12.6-6.6 12.6 4.5 5.1c2.5 2.9 6.5 7.4 9 10.2 2.5 2.7 4.5 5.7 4.6 6.5 0 .8-3.8 6.1-8.5 11.7s-8.5 10.7-8.5 11.4 2.7 6.3 6 12.5 6 11.9 6 12.7-3.9 3.4-8.8 6c-4.9 2.4-10.8 5.7-13 7.1l-4.1 2.6-.3 15.7-.3 15.8-7.7.3c-5.3.2-7.8.7-7.8 1.5-.2 4.9-2.9 27.7-3.4 28.6-1.1 1.7-80.6 1.6-80.6-.2 0-.6 1.6-3.7 3.5-6.7 2.1-3.2 3.1-5.6 2.4-5.9-.6-.2-7.8 1.4-16 3.5-8.1 2.1-15.1 3.5-15.4 3.2-.4-.3-1.9-7.4-3.4-15.7s-3.1-15.4-3.4-15.7-7.4-1-15.8-1.5c-8.4-.6-15.5-1.2-15.7-1.4-.4-.4 1.4-6.6 6.4-22 4.4-13.6 4.3-9.4-.2 5.5-4.5 15.5-5 14.9 13.1 15.7 7.8.4 13.9 1.1 14.4 1.7s1.9 6.3 3.1 12.6c2.9 15.9 2.9 15.8 5.3 16.4 1.2.3 8.7-1.2 16.7-3.2l14.5-3.8 5.2-10.4c2.9-5.8 5.2-11 5.3-11.6 0-.5-3.5-1.6-7.7-2.3-10.5-1.8-17-4.3-25.8-10.2-13.4-9-24.3-23.1-29.9-38.8-3.8-10.9-4.9-19.1-4.4-33.2.5-12.1.5-12.9-1.3-12.9-2.4 0-3.3-3.6-2.6-10.9.7-7.7 3.2-12.3 11.4-20.5 11.2-11.4 26.9-20.4 42.7-24.5 9.8-2.6 25.4-2.8 34.1-.6 14.2 3.8 28.8 15.2 37.9 29.9 8.1 13 11.3 27 12.3 53.8.3 8.7.9 15.8 1.3 15.8.9 0 3.6-9.6 5.1-18.5 1.6-9.4.6-24.9-2.4-35.6-1.3-4.7-4.6-12.8-7.3-18-3.9-7.6-6.5-11.1-13.9-18.5-7.4-7.5-10.5-9.8-17.5-13.2-13-6.2-22.5-8.6-35-8.5-5.9 0-13.3.7-17 1.6-8.1 2-24 9.4-30.2 14.2-2.7 2.1-4.8 3.5-4.8 3.2 0-1.1 11.1-8.7 18-12.4 16.6-8.8 34.4-10.9 53.5-6.2m14.8.9c-.3 1.2-.8 1.9-1.1 1.6-.5-.6.5-3.6 1.2-3.6.2 0 .2.9-.1 2m68.7 34.4c0 .2-.7.7-1.6 1-.8.3-1.2.2-.9-.4.6-1 2.5-1.4 2.5-.6M26.7 204.6c-.3.3-1.2.4-1.9.1-.8-.3-.5-.6.6-.6 1.1-.1 1.7.2 1.3.5M222 254.5c0 .8-.2 1.5-.4 1.5s-.6-.7-1-1.5c-.3-.8-.1-1.5.4-1.5.6 0 1 .7 1 1.5m145.1 40.2c1.3 1.6 1.2 1.7-.3.4-1.7-1.3-2.2-2.1-1.4-2.1.2 0 1 .8 1.7 1.7M167.7 420.6c-.3.3-1.2.4-1.9.1-.8-.3-.5-.6.6-.6 1.1-.1 1.7.2 1.3.5m9.6 2.1c-.7.2-1.9.2-2.5 0-.7-.3-.2-.5 1.2-.5s1.9.2 1.3.5m73.4-.1c-.3.3-1.2.4-1.9.1-.8-.3-.5-.6.6-.6 1.1-.1 1.7.2 1.3.5m-59.4 2.1c-.7.2-1.9.2-2.5 0-.7-.3-.2-.5 1.2-.5s1.9.2 1.3.5m46 0c-.7.2-1.9.2-2.5 0-.7-.3-.2-.5 1.2-.5s1.9.2 1.3.5"/><path d="M158.3 181.5c-7.9 2.2-12.3 4.8-17.5 10.3-14.3 15.3-18.2 41.8-10.6 72 1.1 4.5 2.2 8.1 2.4 7.9s-.5-6-1.7-12.8c-3.5-20.8-1.7-42.2 4.6-54.9 3.3-6.6 11-14.7 16.5-17.5 9.4-4.8 20.1-5.4 36-2 1.9.4 1.6.1-.9-1-7.6-3.6-19.8-4.4-28.8-2m94.7-1.1c-3 .7-7.1 2.1-9 3-2.4 1.2-2.7 1.5-1 1.1 19.6-4.5 27.4-4.4 37.5.5 16.4 7.9 24.5 24.7 24.5 51 0 10.3-1.8 27.2-3.5 32.5-.5 1.5-.4 1.6.3.5.5-.8 2-5.6 3.2-10.5 1.9-7.4 2.3-11.7 2.3-24.5 0-14.1-.3-16.2-2.7-23.4-3.4-10-6.3-14.9-12.3-20.8-7-6.9-14.5-10-25.2-10.4-4.9-.2-10.9.2-14.1 1"/></svg>